<svg width="46" height="46" viewBox="0 0 46 46" fill="none" xmlns="http://www.w3.org/2000/svg">
<g filter="url(#filter0_d)">
<path d="M25.8281 22C25.8281 24.1143 24.1143 25.8281 22 25.8281C19.8857 25.8281 18.1719 24.1143 18.1719 22C18.1719 19.8857 19.8857 18.1719 22 18.1719C24.1143 18.1719 25.8281 19.8857 25.8281 22Z" fill="url(#paint0_linear)" fill-opacity="0.8"/>
<path d="M30.9526 15.2269C30.7686 14.7283 30.475 14.2769 30.0936 13.9064C29.7231 13.525 29.272 13.2314 28.7731 13.0474C28.3684 12.8902 27.7605 12.7031 26.6408 12.6522C25.4296 12.5969 25.0664 12.585 22 12.585C18.9333 12.585 18.5701 12.5966 17.3592 12.6519C16.2395 12.7031 15.6313 12.8902 15.2269 13.0474C14.728 13.2314 14.2766 13.525 13.9064 13.9064C13.525 14.2769 13.2314 14.728 13.0471 15.2269C12.8899 15.6316 12.7028 16.2398 12.6519 17.3595C12.5966 18.5704 12.5847 18.9336 12.5847 22.0003C12.5847 25.0667 12.5966 25.4299 12.6519 26.6411C12.7028 27.7608 12.8899 28.3687 13.0471 28.7734C13.2314 29.2723 13.5247 29.7234 13.9061 30.0939C14.2766 30.4753 14.7277 30.7689 15.2266 30.9529C15.6313 31.1104 16.2395 31.2975 17.3592 31.3484C18.5701 31.4037 18.933 31.4153 21.9997 31.4153C25.0667 31.4153 25.4299 31.4037 26.6405 31.3484C27.7602 31.2975 28.3684 31.1104 28.7731 30.9529C29.7747 30.5666 30.5663 29.775 30.9526 28.7734C31.1098 28.3687 31.2969 27.7608 31.3481 26.6411C31.4034 25.4299 31.415 25.0667 31.415 22.0003C31.415 18.9336 31.4034 18.5704 31.3481 17.3595C31.2972 16.2398 31.1101 15.6316 30.9526 15.2269ZM22 27.8972C18.7429 27.8972 16.1025 25.2571 16.1025 22C16.1025 18.7429 18.7429 16.1028 22 16.1028C25.2568 16.1028 27.8972 18.7429 27.8972 22C27.8972 25.2571 25.2568 27.8972 22 27.8972ZM28.1304 17.2478C27.3693 17.2478 26.7522 16.6307 26.7522 15.8696C26.7522 15.1085 27.3693 14.4915 28.1304 14.4915C28.8915 14.4915 29.5085 15.1085 29.5085 15.8696C29.5082 16.6307 28.8915 17.2478 28.1304 17.2478Z" fill="url(#paint1_linear)" fill-opacity="0.8"/>
<path d="M22 2C10.956 2 2 10.956 2 22C2 33.044 10.956 42 22 42C33.044 42 42 33.044 42 22C42 10.956 33.044 2 22 2ZM33.4151 26.7348C33.3596 27.9573 33.1652 28.792 32.8813 29.5226C32.2847 31.0652 31.0652 32.2847 29.5226 32.8813C28.7923 33.1652 27.9573 33.3593 26.7351 33.4151C25.5104 33.4709 25.1192 33.4844 22.0003 33.4844C18.8811 33.4844 18.4902 33.4709 17.2652 33.4151C16.043 33.3593 15.208 33.1652 14.4777 32.8813C13.7111 32.593 13.0172 32.141 12.4434 31.5566C11.8593 30.9832 11.4073 30.2889 11.119 29.5226C10.8351 28.7923 10.6407 27.9573 10.5852 26.7351C10.5287 25.5101 10.5156 25.1189 10.5156 22C10.5156 18.8811 10.5287 18.4899 10.5849 17.2652C10.6404 16.0427 10.8345 15.208 11.1183 14.4774C11.4067 13.7111 11.859 13.0168 12.4434 12.4434C13.0168 11.859 13.7111 11.407 14.4774 11.1187C15.208 10.8348 16.0427 10.6407 17.2652 10.5849C18.4899 10.5291 18.8811 10.5156 22 10.5156C25.1189 10.5156 25.5101 10.5291 26.7348 10.5852C27.9573 10.6407 28.792 10.8348 29.5226 11.1183C30.2889 11.4067 30.9832 11.859 31.5569 12.4434C32.141 13.0172 32.5933 13.7111 32.8813 14.4774C33.1655 15.208 33.3596 16.0427 33.4154 17.2652C33.4713 18.4899 33.4844 18.8811 33.4844 22C33.4844 25.1189 33.4713 25.5101 33.4151 26.7348Z" fill="url(#paint2_linear)" fill-opacity="0.8"/>
</g>
<defs>
<filter id="filter0_d" x="0" y="0" width="46" height="46" filterUnits="userSpaceOnUse" color-interpolation-filters="sRGB">
<feFlood flood-opacity="0" result="BackgroundImageFix"/>
<feColorMatrix in="SourceAlpha" type="matrix" values="0 0 0 0 0 0 0 0 0 0 0 0 0 0 0 0 0 0 127 0"/>
<feOffset dx="1" dy="1"/>
<feGaussianBlur stdDeviation="1.5"/>
<feColorMatrix type="matrix" values="0 0 0 0 0.689528 0 0 0 0 0.0143055 0 0 0 0 0.858333 0 0 0 1 0"/>
<feBlend mode="normal" in2="BackgroundImageFix" result="effect1_dropShadow"/>
<feBlend mode="normal" in="SourceGraphic" in2="effect1_dropShadow" result="shape"/>
</filter>
<linearGradient id="paint0_linear" x1="18.194" y1="18.1719" x2="24.5136" y2="26.7491" gradientUnits="userSpaceOnUse">
<stop stop-color="#3C5AFB"/>
<stop offset="1" stop-color="#B004DB"/>
</linearGradient>
<linearGradient id="paint1_linear" x1="12.6391" y1="12.585" x2="28.1818" y2="33.6803" gradientUnits="userSpaceOnUse">
<stop stop-color="#3C5AFB"/>
<stop offset="1" stop-color="#B004DB"/>
</linearGradient>
<linearGradient id="paint2_linear" x1="2.11544" y1="2" x2="35.132" y2="46.8114" gradientUnits="userSpaceOnUse">
<stop stop-color="#3C5AFB"/>
<stop offset="1" stop-color="#B004DB"/>
</linearGradient>
</defs>
</svg>
