<svg width="105" height="85" viewBox="0 0 105 85" fill="none" xmlns="http://www.w3.org/2000/svg">
<path d="M31.1956 32.0984C31.1956 32.0984 20.6422 30.3751 20.5441 38.941C20.4461 47.5068 31.1956 45.4309 31.1956 45.4309M73.8043 32.2786C73.8043 32.2786 84.5538 30.3751 84.4558 38.941C84.3577 47.5068 73.8043 45.4309 73.8043 45.4309M31.1956 38.941H28.5326M73.8043 38.941H76.4674" stroke="black" stroke-width="4.62609" stroke-linecap="round"/>
<path d="M38.8043 31.9565H43.9402M61.0598 31.9565H66.1956" stroke="black" stroke-width="4.62609" stroke-linecap="round"/>
<path fill-rule="evenodd" clip-rule="evenodd" d="M53.8268 0.425174C53.0331 -0.141725 51.967 -0.141725 51.1733 0.425174L19.2168 23.2513C18.4093 23.828 18.067 24.8604 18.3698 25.8053C18.6726 26.7502 19.5512 27.3913 20.5435 27.3913H30.183C29.8498 28.8595 29.6739 30.3875 29.6739 31.9565V45.6522C29.6739 54.7678 35.6111 62.4968 43.8294 65.1831C44.3409 65.3503 44.8613 65.4979 45.3896 65.6252C46.9379 65.9981 48.5546 66.1957 50.2174 66.1957H54.7826C56.2177 66.1957 57.6185 66.0485 58.9706 65.7685C59.2561 65.7093 59.5395 65.6443 59.8205 65.5734C68.7307 63.3271 75.3261 55.2599 75.3261 45.6522V31.9565C75.3261 30.3875 75.1502 28.8595 74.8171 27.3913H84.4566C85.4488 27.3913 86.3275 26.7502 86.6303 25.8053C86.9331 24.8604 86.5908 23.828 85.7833 23.2513L53.8268 0.425174ZM73.1907 22.8261H77.3338L67.1659 15.5633C69.6948 17.4766 71.7672 19.9617 73.1907 22.8261ZM66.2454 14.9058L52.5 5.08771L38.7547 14.9058C42.0289 12.7003 45.9728 11.413 50.2174 11.413H54.7826C59.0273 11.413 62.9712 12.7003 66.2454 14.9058ZM37.8342 15.5633L27.6663 22.8261H31.8094C33.2329 19.9617 35.3052 17.4767 37.8342 15.5633ZM37.1031 22.8261C39.9905 18.6866 44.7877 15.9783 50.2174 15.9783H54.7826C60.2124 15.9783 65.0096 18.6866 67.8969 22.8261H37.1031ZM34.9008 27.3913H70.0992C70.5297 28.8378 70.7609 30.3702 70.7609 31.9565V45.6522C70.7609 52.9353 65.888 59.0804 59.2246 61.0049C56.7491 60.1616 54.4937 59.711 52.1352 59.7173C49.9304 59.7232 47.7396 60.1287 45.3048 60.861C38.8838 58.7885 34.2392 52.7627 34.2392 45.6522V31.9565C34.2392 30.3702 34.4703 28.8378 34.9008 27.3913Z" fill="black"/>
<path d="M66.2454 14.9058L52.5 5.08771L38.7547 14.9058C42.0289 12.7003 45.9728 11.413 50.2174 11.413H54.7826C59.0273 11.413 62.9712 12.7003 66.2454 14.9058Z" fill="black"/>
<path d="M37.8342 15.5633L27.6663 22.8261H31.8094C33.2329 19.9617 35.3052 17.4767 37.8342 15.5633Z" fill="black"/>
<path d="M50.2174 15.9783C44.7877 15.9783 39.9905 18.6866 37.1031 22.8261H67.8969C65.0096 18.6866 60.2124 15.9783 54.7826 15.9783H50.2174Z" fill="black"/>
<path d="M73.1907 22.8261H77.3338L67.1659 15.5633C69.6948 17.4766 71.7672 19.9617 73.1907 22.8261Z" fill="black"/>
<path d="M47.9348 50.2174H57.0652" stroke="black" stroke-width="4.62609" stroke-linecap="round" stroke-linejoin="round"/>
<path fill-rule="evenodd" clip-rule="evenodd" d="M28.5326 78.6118C28.6591 78.3067 28.7798 77.9715 28.892 77.6087H28.1732C28.2855 77.9715 28.4061 78.3067 28.5326 78.6118ZM28.5326 84.4565C30.7502 84.4565 32.6724 81.6736 33.6169 77.6087H102.717H105V75.3261C105 73.7182 104.451 72.267 103.343 71.0753C102.294 69.9458 100.85 69.1635 99.2204 68.5867C95.9919 67.4442 91.2908 66.8605 85.2022 66.5454C76.7893 66.1099 65.1915 66.1728 50.1129 66.2545C45.0244 66.2821 39.5393 66.3118 33.6466 66.3252C32.7131 62.1899 30.7737 59.3478 28.5326 59.3478C26.315 59.3478 24.3929 62.1307 23.4483 66.1956H22.4233H17.0524H11.6816H6.31074V68.4782C6.31074 66.1956 6.31172 66.1956 6.31074 66.1956L6.30675 66.1956L6.30237 66.1957L6.29242 66.1957L6.2679 66.196L6.20086 66.1974C6.14846 66.1989 6.08057 66.2016 5.99933 66.2065C5.83755 66.2163 5.61882 66.2352 5.36117 66.2717C4.85764 66.343 4.14654 66.4898 3.40385 66.8055C2.66194 67.1208 1.79879 67.6434 1.11593 68.514C0.406811 69.4181 0 70.5624 0 71.9022C0 73.2419 0.406811 74.3862 1.11593 75.2903C1.79879 76.161 2.66194 76.6835 3.40385 76.9988C4.14654 77.3145 4.85764 77.4613 5.36117 77.5326C5.61882 77.5691 5.83755 77.588 5.99933 77.5978C6.08057 77.6027 6.14846 77.6054 6.20086 77.6069L6.2679 77.6084L6.29242 77.6086L6.30237 77.6087L6.30675 77.6087C6.30773 77.6087 6.31074 77.6087 6.31074 75.3261V77.6087H11.6816H17.0524H23.4483C24.3929 81.6736 26.315 84.4565 28.5326 84.4565ZM22.8494 73.0435C22.834 72.6676 22.8261 72.2869 22.8261 71.9022C22.8261 71.5174 22.834 71.1368 22.8494 70.7609H22.4233H17.0524H11.6816H6.32751C6.31927 70.7611 6.30168 70.7618 6.27599 70.7633C6.21748 70.7669 6.12151 70.7748 6.00152 70.7918C5.74977 70.8275 5.45384 70.8946 5.1895 71.007C4.92437 71.1197 4.78049 71.2391 4.70808 71.3314C4.66192 71.3903 4.56522 71.53 4.56522 71.9022C4.56522 72.2744 4.66192 72.4141 4.70808 72.4729C4.78049 72.5652 4.92437 72.6847 5.1895 72.7973C5.45384 72.9097 5.74977 72.9769 6.00152 73.0125C6.12151 73.0295 6.21748 73.0374 6.27599 73.041C6.30168 73.0425 6.31926 73.0432 6.3275 73.0435H11.6816H17.0524H22.8494ZM50.3237 70.8191C45.3567 70.8461 39.9949 70.8752 34.2208 70.8892C34.233 71.2234 34.2391 71.5612 34.2391 71.9022C34.2391 72.2869 34.2313 72.6676 34.2159 73.0435H98.1064C97.9773 72.9923 97.8411 72.9412 97.6974 72.8904C95.1481 71.9882 91.0326 71.4185 84.9663 71.1045C76.6885 70.676 65.2999 70.7378 50.3237 70.8191ZM29.6739 71.9022C29.6739 71.5602 29.6665 71.2249 29.6524 70.8968C28.9122 70.8975 28.1657 70.8978 27.4128 70.8978C27.3987 71.2255 27.3913 71.5605 27.3913 71.9022C27.3913 72.2915 27.4009 72.6723 27.4191 73.0435H29.6461C29.6643 72.6723 29.6739 72.2915 29.6739 71.9022ZM28.5326 65.1925C28.6748 65.5355 28.8097 65.9166 28.9334 66.3321L28.1317 66.3325C28.2555 65.9168 28.3903 65.5356 28.5326 65.1925Z" fill="black"/>
<path d="M28.9334 66.3321C28.8097 65.9166 28.6748 65.5355 28.5326 65.1925C28.3903 65.5356 28.2555 65.9168 28.1317 66.3325L28.9334 66.3321Z" fill="black"/>
<path d="M29.6524 70.8968C29.6665 71.2249 29.6739 71.5602 29.6739 71.9022C29.6739 72.2915 29.6643 72.6723 29.6461 73.0435H27.4191C27.4009 72.6723 27.3913 72.2915 27.3913 71.9022C27.3913 71.5605 27.3987 71.2255 27.4128 70.8978C28.1657 70.8978 28.9122 70.8975 29.6524 70.8968Z" fill="black"/>
<path d="M28.892 77.6087C28.7798 77.9715 28.6591 78.3067 28.5326 78.6118C28.4061 78.3067 28.2855 77.9715 28.1732 77.6087H28.892Z" fill="black"/>
</svg>
