<svg width="444" height="444" viewBox="0 0 444 444" fill="none" xmlns="http://www.w3.org/2000/svg">
<path fill-rule="evenodd" clip-rule="evenodd" d="M440.574 229.823L443.861 229.939C443.953 227.304 444 224.657 444 222C444 219.343 443.953 216.696 443.861 214.062L440.574 214.177L437.287 214.293C437.377 216.85 437.422 219.42 437.422 222C437.422 224.58 437.377 227.15 437.287 229.707L440.574 229.823ZM439.475 198.608L442.746 198.26C442.183 192.97 441.435 187.735 440.508 182.563L437.27 183.143L434.033 183.723C434.933 188.742 435.659 193.822 436.205 198.956L439.475 198.608ZM433.967 167.892L437.155 167.081C435.845 161.936 434.356 156.862 432.694 151.867L429.574 152.905L426.453 153.943C428.065 158.789 429.51 163.711 430.78 168.703L433.967 167.892ZM424.116 138.281L427.155 137.021C425.124 132.126 422.924 127.318 420.561 122.607L417.621 124.082L414.682 125.556C416.974 130.127 419.109 134.791 421.078 139.541L424.116 138.281ZM410.127 110.385L412.954 108.704C410.249 104.155 407.386 99.7109 404.373 95.3791L401.673 97.2572L398.973 99.1353C401.897 103.339 404.675 107.652 407.3 112.066L410.127 110.385ZM392.306 84.7638L394.866 82.6986C391.546 78.584 388.082 74.5903 384.482 70.7252L382.075 72.9668L379.669 75.2085C383.163 78.9597 386.524 82.8357 389.746 86.8291L392.306 84.7638ZM371.033 61.9249L373.275 59.5182C369.41 55.9182 365.416 52.4543 361.301 49.1344L359.236 51.694L357.171 54.2536C361.164 57.4757 365.04 60.8374 368.792 64.3315L371.033 61.9249ZM346.743 42.327L348.621 39.627C344.289 36.6138 339.845 33.751 335.296 31.0461L333.615 33.873L331.934 36.6999C336.348 39.3246 340.661 42.1027 344.865 45.0269L346.743 42.327ZM319.918 26.3786L321.393 23.4387C316.682 21.0758 311.874 18.8756 306.979 16.8455L305.719 19.8835L304.459 22.9216C309.209 24.8911 313.873 27.0258 318.444 29.3185L319.918 26.3786ZM291.095 14.4264L292.133 11.3057C287.138 9.64391 282.065 8.15473 276.919 6.84528L276.108 10.0326L275.297 13.2199C280.289 14.4902 285.211 15.9349 290.057 17.5471L291.095 14.4264ZM260.857 6.72967L261.437 3.4924C256.265 2.56502 251.03 1.8168 245.74 1.25441L245.392 4.52487L245.044 7.79533C250.178 8.34111 255.258 9.06715 260.277 9.96695L260.857 6.72967ZM229.823 3.42615L229.939 0.139292C227.304 0.0466891 224.657 0 222 0C219.343 0 216.696 0.0466884 214.062 0.13929L214.177 3.42615L214.293 6.71301C216.85 6.62311 219.42 6.57778 222 6.57778C224.58 6.57778 227.15 6.62311 229.707 6.71301L229.823 3.42615ZM198.608 4.52486L198.26 1.2544C192.97 1.8168 187.735 2.56501 182.563 3.49239L183.143 6.72967L183.723 9.96694C188.742 9.06715 193.822 8.3411 198.956 7.79533L198.608 4.52486ZM167.892 10.0326L167.081 6.84526C161.936 8.15471 156.862 9.64389 151.867 11.3057L152.905 14.4264L153.943 17.5471C158.789 15.9349 163.711 14.4902 168.703 13.2199L167.892 10.0326ZM138.281 19.8835L137.021 16.8455C132.126 18.8756 127.318 21.0758 122.607 23.4387L124.082 26.3786L125.556 29.3184C130.127 27.0258 134.791 24.8911 139.541 22.9215L138.281 19.8835ZM110.385 33.873L108.704 31.0461C104.155 33.751 99.7109 36.6138 95.3791 39.627L97.2572 42.3269L99.1353 45.0269C103.339 42.1027 107.652 39.3246 112.066 36.6999L110.385 33.873ZM84.7638 51.694L82.6986 49.1344C78.584 52.4543 74.5903 55.9181 70.7252 59.5182L72.9668 61.9249L75.2085 64.3315C78.9597 60.8374 82.8357 57.4757 86.8291 54.2536L84.7638 51.694ZM61.9249 72.9668L59.5182 70.7252C55.9182 74.5903 52.4543 78.5839 49.1344 82.6986L51.694 84.7638L54.2536 86.829C57.4757 82.8357 60.8374 78.9597 64.3315 75.2085L61.9249 72.9668ZM42.327 97.2572L39.627 95.3791C36.6138 99.7109 33.751 104.155 31.0461 108.704L33.873 110.385L36.6999 112.066C39.3246 107.652 42.1027 103.339 45.0269 99.1352L42.327 97.2572ZM26.3786 124.082L23.4387 122.607C21.0758 127.318 18.8756 132.126 16.8455 137.021L19.8835 138.281L22.9216 139.541C24.8911 134.791 27.0258 130.127 29.3185 125.556L26.3786 124.082ZM14.4264 152.905L11.3057 151.867C9.64391 156.862 8.15473 161.935 6.84528 167.081L10.0326 167.892L13.2199 168.703C14.4902 163.711 15.9349 158.789 17.5471 153.943L14.4264 152.905ZM6.72967 183.143L3.4924 182.563C2.56502 187.735 1.8168 192.97 1.25441 198.26L4.52487 198.608L7.79533 198.956C8.34111 193.822 9.06715 188.742 9.96695 183.723L6.72967 183.143ZM0 222C0 219.343 0.0466891 216.696 0.139292 214.061L3.42615 214.177L6.71301 214.293C6.62311 216.85 6.57778 219.42 6.57778 222C6.57778 224.58 6.62311 227.15 6.71301 229.707L3.42615 229.823L0.13929 229.938C0.0466884 227.304 0 224.657 0 222ZM4.52486 245.392L1.2544 245.74C1.8168 251.03 2.56501 256.265 3.49239 261.437L6.72967 260.857L9.96694 260.277C9.06715 255.258 8.3411 250.178 7.79533 245.044L4.52486 245.392ZM10.0326 276.108L6.84526 276.919C8.15471 282.064 9.64389 287.138 11.3057 292.133L14.4264 291.095L17.5471 290.057C15.9349 285.211 14.4902 280.289 13.2199 275.297L10.0326 276.108ZM19.8835 305.719L16.8455 306.979C18.8756 311.874 21.0758 316.682 23.4387 321.393L26.3786 319.918L29.3184 318.444C27.0258 313.873 24.8911 309.209 22.9215 304.459L19.8835 305.719ZM33.873 333.615L31.0461 335.296C33.751 339.845 36.6138 344.289 39.627 348.621L42.3269 346.743L45.0269 344.865C42.1027 340.661 39.3246 336.348 36.6999 331.934L33.873 333.615ZM51.694 359.236L49.1344 361.301C52.4543 365.416 55.9181 369.41 59.5182 373.275L61.9249 371.033L64.3315 368.792C60.8374 365.04 57.4757 361.164 54.2536 357.171L51.694 359.236ZM72.9668 382.075L70.7252 384.482C74.5903 388.082 78.5839 391.546 82.6986 394.866L84.7638 392.306L86.829 389.746C82.8357 386.524 78.9597 383.163 75.2085 379.668L72.9668 382.075ZM97.2572 401.673L95.3791 404.373C99.7109 407.386 104.155 410.249 108.704 412.954L110.385 410.127L112.066 407.3C107.652 404.675 103.339 401.897 99.1352 398.973L97.2572 401.673ZM124.082 417.621L122.607 420.561C127.318 422.924 132.126 425.124 137.021 427.155L138.281 424.116L139.541 421.078C134.791 419.109 130.127 416.974 125.556 414.682L124.082 417.621ZM152.905 429.574L151.867 432.694C156.862 434.356 161.935 435.845 167.081 437.155L167.892 433.967L168.703 430.78C163.711 429.51 158.789 428.065 153.943 426.453L152.905 429.574ZM183.143 437.27L182.563 440.508C187.735 441.435 192.97 442.183 198.26 442.746L198.608 439.475L198.956 436.205C193.822 435.659 188.742 434.933 183.723 434.033L183.143 437.27ZM214.177 440.574L214.061 443.861C216.696 443.953 219.343 444 222 444C224.657 444 227.304 443.953 229.938 443.861L229.823 440.574L229.707 437.287C227.15 437.377 224.58 437.422 222 437.422C219.42 437.422 216.85 437.377 214.293 437.287L214.177 440.574ZM245.392 439.475L245.74 442.746C251.03 442.183 256.265 441.435 261.437 440.508L260.857 437.27L260.277 434.033C255.258 434.933 250.178 435.659 245.044 436.205L245.392 439.475ZM276.108 433.967L276.919 437.155C282.064 435.845 287.138 434.356 292.133 432.694L291.095 429.574L290.057 426.453C285.211 428.065 280.289 429.51 275.297 430.78L276.108 433.967ZM305.719 424.116L306.979 427.155C311.874 425.124 316.682 422.924 321.393 420.561L319.918 417.621L318.444 414.682C313.873 416.974 309.209 419.109 304.459 421.078L305.719 424.116ZM333.615 410.127L335.296 412.954C339.845 410.249 344.289 407.386 348.621 404.373L346.743 401.673L344.865 398.973C340.661 401.897 336.348 404.675 331.934 407.3L333.615 410.127ZM359.236 392.306L361.301 394.866C365.416 391.546 369.41 388.082 373.275 384.482L371.033 382.075L368.792 379.669C365.04 383.163 361.164 386.524 357.171 389.746L359.236 392.306ZM382.075 371.033L384.482 373.275C388.082 369.41 391.546 365.416 394.866 361.301L392.306 359.236L389.746 357.171C386.524 361.164 383.163 365.04 379.668 368.792L382.075 371.033ZM401.673 346.743L404.373 348.621C407.386 344.289 410.249 339.845 412.954 335.296L410.127 333.615L407.3 331.934C404.675 336.348 401.897 340.661 398.973 344.865L401.673 346.743ZM417.621 319.918L420.561 321.393C422.924 316.682 425.124 311.874 427.155 306.979L424.116 305.719L421.078 304.459C419.109 309.209 416.974 313.873 414.682 318.444L417.621 319.918ZM429.574 291.095L432.694 292.133C434.356 287.138 435.845 282.065 437.155 276.919L433.967 276.108L430.78 275.297C429.51 280.289 428.065 285.211 426.453 290.057L429.574 291.095ZM437.27 260.857L440.508 261.437C441.435 256.265 442.183 251.03 442.746 245.74L439.475 245.392L436.205 245.044C435.659 250.178 434.933 255.258 434.033 260.277L437.27 260.857ZM311.485 248.044C292.412 275.464 260.672 293.411 224.74 293.411C187.993 293.411 155.63 274.641 136.717 246.165C137.248 246.497 137.777 246.762 138.275 246.974C139.579 247.528 140.827 247.786 141.711 247.911C142.163 247.975 142.547 248.008 142.831 248.025C142.974 248.034 143.093 248.039 143.185 248.041L143.303 248.044L143.346 248.044L143.363 248.044L143.371 248.044C143.372 248.044 143.378 248.044 143.378 244.038V248.044H152.805H162.232H173.458C175.116 255.179 178.49 260.064 182.383 260.064C186.275 260.064 189.649 255.179 191.307 248.044H311.485ZM316.126 240.754C315.66 239.226 314.85 237.821 313.694 236.577C311.851 234.594 309.318 233.221 306.457 232.209C300.79 230.203 292.539 229.179 281.852 228.625C267.085 227.861 246.728 227.971 220.262 228.115H220.262H220.262H220.262H220.261H220.261L220.251 228.115L220.239 228.115C211.313 228.163 201.693 228.216 191.359 228.239C189.72 220.981 186.316 215.992 182.383 215.992C178.49 215.992 175.116 220.877 173.458 228.012H171.659H162.232H152.805H143.378H143.371L143.363 228.012L143.346 228.012L143.303 228.012L143.185 228.015C143.146 228.016 143.102 228.017 143.053 228.019C142.987 228.022 142.913 228.026 142.831 228.031C142.547 228.048 142.163 228.081 141.711 228.145C140.827 228.27 139.579 228.528 138.275 229.082C136.973 229.636 135.458 230.553 134.26 232.081C133.015 233.668 132.301 235.676 132.301 238.028C132.301 238.348 132.314 238.662 132.34 238.969C123.933 223.815 119.145 206.375 119.145 187.817C119.145 129.498 166.421 82.2222 224.74 82.2222C283.058 82.2222 330.334 129.498 330.334 187.817C330.334 207.108 325.161 225.191 316.126 240.754ZM143.378 232.018C143.378 228.012 143.379 228.012 143.378 228.012V232.018ZM340.201 187.817C340.201 251.584 288.507 303.278 224.74 303.278C160.972 303.278 109.279 251.584 109.279 187.817C109.279 124.049 160.972 72.3556 224.74 72.3556C288.507 72.3556 340.201 124.049 340.201 187.817ZM184.206 171.988C184.154 171.987 184.1 171.985 184.047 171.983C182.519 171.941 180.585 172.028 178.727 172.476C176.856 172.928 175.327 173.681 174.281 174.768C173.318 175.77 172.454 177.371 172.421 180.22C172.389 183.054 173.221 184.552 174.104 185.448C175.085 186.445 176.571 187.14 178.465 187.531C180.339 187.918 182.305 187.941 183.867 187.847C184.048 187.836 184.221 187.823 184.386 187.81V184.233H182.383C180.141 184.233 178.323 182.415 178.323 180.173C178.323 177.931 180.141 176.113 182.383 176.113H184.386V171.995C184.327 171.993 184.267 171.991 184.206 171.988ZM184.604 195.936C184.522 195.941 184.44 195.947 184.357 195.952C182.386 196.071 179.646 196.065 176.825 195.483C174.023 194.906 170.825 193.693 168.316 191.144C165.709 188.495 164.248 184.81 164.302 180.127C164.355 175.458 165.871 171.799 168.429 169.139C170.905 166.565 174.04 165.255 176.821 164.583C179.615 163.909 182.323 163.812 184.274 163.867C184.388 163.87 184.5 163.874 184.609 163.878C184.76 162.528 184.985 161.201 185.28 159.901H168.36C166.618 159.901 165.076 158.775 164.545 157.117C164.013 155.458 164.614 153.646 166.031 152.634L222.123 112.569C223.516 111.573 225.387 111.573 226.78 112.569L282.872 152.634C284.289 153.646 284.89 155.458 284.358 157.117C283.827 158.775 282.285 159.901 280.543 159.901H263.623C263.938 161.288 264.173 162.707 264.323 164.15C264.417 164.145 264.514 164.14 264.612 164.136C266.584 164.049 269.322 164.098 272.14 164.725C274.939 165.347 278.12 166.608 280.609 169.178C283.194 171.847 284.655 175.536 284.602 180.22C284.548 184.887 283.031 188.537 280.429 191.157C277.916 193.687 274.744 194.902 271.957 195.482C269.154 196.065 266.443 196.071 264.494 195.951L264.403 195.946L264.299 195.939C262.641 211.014 251.691 223.292 237.301 226.92C236.807 227.044 236.31 227.158 235.809 227.262C233.436 227.754 230.977 228.012 228.458 228.012H220.445C217.526 228.012 214.689 227.665 211.971 227.01C211.044 226.787 210.13 226.528 209.232 226.234C196.021 221.916 186.168 210.173 184.604 195.936ZM264.517 187.813C264.668 187.825 264.827 187.837 264.992 187.847C266.522 187.941 268.452 187.917 270.302 187.532C272.167 187.144 273.659 186.451 274.668 185.435C275.587 184.51 276.45 182.977 276.482 180.127C276.515 177.293 275.682 175.762 274.777 174.828C273.778 173.796 272.274 173.073 270.377 172.651C268.499 172.233 266.532 172.179 264.971 172.248C264.814 172.255 264.662 172.263 264.517 172.272V176.113H266.52C268.763 176.113 270.58 177.931 270.58 180.173C270.58 182.415 268.763 184.233 266.52 184.233H264.517V187.813ZM196.352 167.914C196.352 165.672 198.17 163.854 200.412 163.854H209.427C211.669 163.854 213.487 165.672 213.487 167.914C213.487 170.156 211.669 171.974 209.427 171.974H200.412C198.17 171.974 196.352 170.156 196.352 167.914ZM235.416 167.914C235.416 165.672 237.233 163.854 239.476 163.854H248.49C250.733 163.854 252.55 165.672 252.55 167.914C252.55 170.156 250.733 171.974 248.49 171.974H239.476C237.233 171.974 235.416 170.156 235.416 167.914ZM193.561 159.901H255.342C256.098 162.44 256.504 165.129 256.504 167.914V191.953C256.504 204.737 247.951 215.523 236.255 218.901C231.91 217.421 227.951 216.63 223.811 216.641C219.941 216.651 216.096 217.363 211.822 218.648C200.552 215.01 192.399 204.434 192.399 191.953V167.914C192.399 165.129 192.805 162.44 193.561 159.901ZM212.378 199.966C212.378 197.724 214.196 195.906 216.438 195.906H232.464C234.707 195.906 236.524 197.724 236.524 199.966C236.524 202.208 234.707 204.026 232.464 204.026H216.438C214.196 204.026 212.378 202.208 212.378 199.966ZM172.366 238.028C172.366 238.703 172.38 239.371 172.407 240.031H162.232H152.805H143.407L143.393 240.031C143.387 240.031 143.38 240.03 143.372 240.03C143.357 240.029 143.339 240.028 143.317 240.027C143.214 240.021 143.046 240.007 142.835 239.977C142.393 239.914 141.874 239.796 141.41 239.599C140.944 239.401 140.692 239.192 140.565 239.03C140.484 238.927 140.314 238.681 140.314 238.028C140.314 237.375 140.484 237.129 140.565 237.026C140.692 236.864 140.944 236.655 141.41 236.457C141.874 236.26 142.393 236.142 142.835 236.079C143.046 236.049 143.214 236.035 143.317 236.029C143.362 236.026 143.393 236.025 143.407 236.025H152.805H162.232H171.659H172.407C172.38 236.685 172.366 237.353 172.366 238.028ZM220.624 236.127L220.631 236.127C246.918 235.984 266.908 235.876 281.437 236.628C292.085 237.179 299.309 238.179 303.784 239.763C304.036 239.852 304.275 239.941 304.502 240.031H192.358C192.385 239.371 192.399 238.703 192.399 238.028C192.399 237.429 192.388 236.837 192.367 236.25C202.499 236.225 211.908 236.174 220.624 236.127ZM314.551 371.644H299.668V290.623H314.551V341.715L336.579 313.788H353.574L334.36 337.926L353.574 371.644H336.579L324.835 350.591L314.551 364.23V371.644ZM151.015 371.644H154.587V313.788H151.015L145.278 320.661C143.907 319.362 142.428 318.153 140.84 317.035C139.289 315.916 137.647 314.942 135.915 314.112C134.183 313.282 132.397 312.633 130.557 312.164C128.717 311.695 126.859 311.46 124.983 311.46C120.905 311.46 117.063 312.218 113.454 313.733C109.882 315.213 106.743 317.306 104.037 320.012C101.367 322.718 99.2564 325.965 97.7049 329.754C96.1534 333.506 95.3776 337.638 95.3776 342.148C95.3776 346.983 96.1534 351.294 97.7049 355.083C99.2564 358.872 101.367 362.083 104.037 364.717C106.743 367.315 109.882 369.299 113.454 370.67C117.063 372.041 120.905 372.727 124.983 372.727C126.859 372.727 128.699 372.492 130.503 372.023C132.343 371.554 134.129 370.923 135.861 370.129C137.593 369.299 139.235 368.343 140.786 367.26C142.374 366.142 143.871 364.951 145.278 363.688L151.015 371.644ZM138.513 336.303C139.307 338.179 139.704 340.127 139.704 342.148C139.704 344.168 139.307 346.135 138.513 348.047C137.755 349.923 136.709 351.601 135.374 353.08C134.039 354.524 132.469 355.696 130.665 356.598C128.897 357.464 127.003 357.897 124.983 357.897C122.962 357.897 121.05 357.555 119.246 356.869C117.478 356.183 115.926 355.173 114.591 353.838C113.292 352.503 112.264 350.861 111.506 348.913C110.748 346.929 110.37 344.673 110.37 342.148C110.37 339.622 110.748 337.385 111.506 335.437C112.264 333.452 113.292 331.792 114.591 330.457C115.926 329.122 117.478 328.112 119.246 327.426C121.05 326.741 122.962 326.398 124.983 326.398C127.003 326.398 128.897 326.849 130.665 327.751C132.469 328.617 134.039 329.79 135.374 331.269C136.709 332.712 137.755 334.39 138.513 336.303ZM262.28 359.305C263.435 356.598 264.012 353.73 264.012 350.699V313.788H249.291V350.699C249.291 351.709 249.092 352.665 248.695 353.568C248.298 354.434 247.757 355.209 247.072 355.895C246.422 356.544 245.646 357.067 244.744 357.464C243.842 357.825 242.886 358.006 241.876 358.006C240.866 358.006 239.91 357.825 239.007 357.464C238.142 357.067 237.366 356.544 236.68 355.895C236.031 355.209 235.508 354.434 235.111 353.568C234.714 352.665 234.515 351.709 234.515 350.699V313.788H219.794V350.699C219.794 351.709 219.596 352.665 219.199 353.568C218.838 354.434 218.315 355.209 217.629 355.895C216.944 356.544 216.15 357.067 215.248 357.464C214.346 357.825 213.39 358.006 212.379 358.006C211.369 358.006 210.413 357.825 209.511 357.464C208.645 357.067 207.869 356.544 207.184 355.895C206.534 355.209 206.011 354.434 205.614 353.568C205.253 352.665 205.073 351.709 205.073 350.699V313.788H190.297V350.699C190.297 353.73 190.875 356.598 192.029 359.305C193.184 361.975 194.753 364.302 196.738 366.286C198.758 368.271 201.104 369.84 203.774 370.995C206.444 372.15 209.312 372.727 212.379 372.727C215.158 372.727 217.792 372.258 220.281 371.32C222.807 370.345 225.08 368.938 227.101 367.098C229.157 368.938 231.448 370.345 233.974 371.32C236.5 372.258 239.134 372.727 241.876 372.727C244.943 372.727 247.811 372.15 250.481 370.995C253.188 369.84 255.533 368.271 257.517 366.286C259.538 364.302 261.125 361.975 262.28 359.305Z" fill="url(#paint0_linear)"/>
<defs>
<linearGradient id="paint0_linear" x1="1.28134" y1="9.73377e-06" x2="367.766" y2="497.406" gradientUnits="userSpaceOnUse">
<stop stop-color="#58E1FF"/>
<stop offset="1" stop-color="#130089"/>
</linearGradient>
</defs>
</svg>
