<svg width="25" height="25" viewBox="0 0 25 25" fill="none" xmlns="http://www.w3.org/2000/svg">
<path d="M24.4434 10.3809L21.5186 9.66309C21.3574 9.15039 21.1523 8.65234 20.9033 8.16895L22.3975 5.67871C22.5732 5.38574 22.5293 5.01953 22.2949 4.78516L20.2148 2.70508C19.9805 2.4707 19.6143 2.42676 19.3213 2.60254L16.8311 4.09668C16.3477 3.84766 15.8496 3.64258 15.3369 3.48145L14.6338 0.556641C14.5459 0.234375 14.2529 0 13.916 0H10.9863C10.6494 0 10.3564 0.234375 10.2686 0.556641L9.56543 3.48145C9.05273 3.64258 8.55469 3.84766 8.07129 4.09668L5.58105 2.60254C5.28809 2.42676 4.92188 2.4707 4.6875 2.70508L2.60742 4.78516C2.37305 5.01953 2.3291 5.38574 2.50488 5.67871L3.99902 8.16895C3.75 8.65234 3.54492 9.15039 3.38379 9.66309L0.556641 10.3809C0.234375 10.4541 0 10.7471 0 11.084V14.0137C0 14.3506 0.234375 14.6436 0.556641 14.7168L3.38379 15.4346C3.54492 15.9473 3.75 16.4453 3.99902 16.9287L2.50488 19.4189C2.3291 19.7119 2.37305 20.0781 2.60742 20.3125L4.6875 22.3926C4.92188 22.627 5.28809 22.6709 5.58105 22.4951L8.07129 21.001C8.55469 21.25 9.05273 21.4551 9.56543 21.6162L10.2686 24.4434C10.3564 24.7656 10.6494 25 10.9863 25H13.916C14.2529 25 14.5459 24.7656 14.6338 24.4434L15.3369 21.6162C15.8496 21.4551 16.3477 21.25 16.8311 21.001L19.3213 22.4951C19.6143 22.6709 19.9805 22.627 20.2148 22.3926L22.2949 20.3125C22.5293 20.0781 22.5732 19.7119 22.3975 19.4189L20.9033 16.9287C21.1523 16.4453 21.3574 15.9473 21.5186 15.4346L24.4434 14.7168C24.7656 14.6436 25 14.3506 25 14.0137V11.084C25 10.7471 24.7656 10.4541 24.4434 10.3809ZM12.4512 16.2109C10.4297 16.2109 8.78906 14.5703 8.78906 12.5488C8.78906 10.5273 10.4297 8.88672 12.4512 8.88672C14.4727 8.88672 16.1133 10.5273 16.1133 12.5488C16.1133 14.5703 14.4727 16.2109 12.4512 16.2109Z" fill="url(#paint0_linear)" fill-opacity="0.8"/>
<defs>
<linearGradient id="paint0_linear" x1="0.0721477" y1="5.48073e-07" x2="20.7075" y2="28.0071" gradientUnits="userSpaceOnUse">
<stop stop-color="#3C5AFB"/>
<stop offset="1" stop-color="#B004DB"/>
</linearGradient>
</defs>
</svg>
