<?xml version="1.0" encoding="iso-8859-1"?>
<!-- Generator: Adobe Illustrator 16.0.0, SVG Export Plug-In . SVG Version: 6.00 Build 0)  -->
<!DOCTYPE svg PUBLIC "-//W3C//DTD SVG 1.1//EN" "http://www.w3.org/Graphics/SVG/1.1/DTD/svg11.dtd">
<svg version="1.1" id="Capa_1" xmlns="http://www.w3.org/2000/svg" xmlns:xlink="http://www.w3.org/1999/xlink" x="0px" y="0px"
	 width="31.252px" height="31.252px" viewBox="0 0 31.252 31.252" style="enable-background:new 0 0 31.252 31.252;"
	 xml:space="preserve">
<g>
	<g>
		<circle cx="5.646" cy="14.757" r="1.626"/>
		<path d="M0,0v31.252h31.251V0H0z M24.297,17.227c-0.22,0-0.431-0.035-0.643-0.064l-3.215,2.523
			c0.019,0.141,0.044,0.277,0.044,0.421c0,1.913-1.558,3.469-3.47,3.469c-1.855,0-3.364-1.47-3.452-3.308l-5.991-2.629
			c-0.551,0.371-1.211,0.586-1.925,0.586c-1.911,0-3.467-1.555-3.467-3.468c0-1.913,1.556-3.468,3.467-3.468
			c1.913,0,3.47,1.556,3.47,3.468c0,0.068-0.016,0.131-0.02,0.199l5.704,2.503c0.604-0.505,1.369-0.821,2.213-0.821
			c0.271,0,0.533,0.039,0.787,0.099l1.912-3.02c-0.113-0.405-0.191-0.823-0.191-1.265c0-2.633,2.142-4.774,4.775-4.774
			c2.633,0,4.773,2.141,4.773,4.774C29.072,15.084,26.93,17.227,24.297,17.227z"/>
		<circle cx="17.014" cy="20.106" r="1.683"/>
		<path d="M24.297,9.724c-1.506,0-2.729,1.223-2.729,2.727s1.223,2.728,2.729,2.728c1.504,0,2.729-1.224,2.729-2.728
			C27.025,10.947,25.801,9.724,24.297,9.724z"/>
	</g>
</g>
<g>
</g>
<g>
</g>
<g>
</g>
<g>
</g>
<g>
</g>
<g>
</g>
<g>
</g>
<g>
</g>
<g>
</g>
<g>
</g>
<g>
</g>
<g>
</g>
<g>
</g>
<g>
</g>
<g>
</g>
</svg>
