<svg width="46" height="46" viewBox="0 0 46 46" fill="none" xmlns="http://www.w3.org/2000/svg">
<g filter="url(#filter0_d)">
<path d="M22 42C33.0483 42 42 33.0483 42 22C42 10.9517 33.0483 2 22 2C10.9517 2 2 10.9517 2 22C2 33.0483 10.9517 42 22 42ZM11.1517 21.5667L30.435 14.1317C31.33 13.8083 32.1117 14.35 31.8217 15.7033L31.8233 15.7017L28.54 31.17C28.2967 32.2667 27.645 32.5333 26.7333 32.0167L21.7333 28.3317L19.3217 30.655C19.055 30.9217 18.83 31.1467 18.3133 31.1467L18.6683 26.0583L27.935 17.6867C28.3383 17.3317 27.845 17.1317 27.3133 17.485L15.8617 24.695L10.925 23.155C9.85333 22.815 9.83 22.0833 11.1517 21.5667Z" fill="url(#paint0_linear)" fill-opacity="0.8"/>
</g>
<defs>
<filter id="filter0_d" x="0" y="0" width="46" height="46" filterUnits="userSpaceOnUse" color-interpolation-filters="sRGB">
<feFlood flood-opacity="0" result="BackgroundImageFix"/>
<feColorMatrix in="SourceAlpha" type="matrix" values="0 0 0 0 0 0 0 0 0 0 0 0 0 0 0 0 0 0 127 0"/>
<feOffset dx="1" dy="1"/>
<feGaussianBlur stdDeviation="1.5"/>
<feColorMatrix type="matrix" values="0 0 0 0 0.689528 0 0 0 0 0.0143055 0 0 0 0 0.858333 0 0 0 1 0"/>
<feBlend mode="normal" in2="BackgroundImageFix" result="effect1_dropShadow"/>
<feBlend mode="normal" in="SourceGraphic" in2="effect1_dropShadow" result="shape"/>
</filter>
<linearGradient id="paint0_linear" x1="2.11544" y1="2" x2="35.132" y2="46.8114" gradientUnits="userSpaceOnUse">
<stop stop-color="#3C5AFB"/>
<stop offset="1" stop-color="#B004DB"/>
</linearGradient>
</defs>
</svg>
