<svg width="46" height="46" viewBox="0 0 46 46" fill="none" xmlns="http://www.w3.org/2000/svg">
<g filter="url(#filter0_d)">
<path d="M22 2C10.956 2 2 10.956 2 22C2 33.044 10.956 42 22 42C33.044 42 42 33.044 42 22C42 10.956 33.044 2 22 2ZM31.1318 17.5939C31.1406 17.7907 31.1449 17.9885 31.1449 18.1871C31.1449 24.2531 26.5276 31.248 18.0837 31.2484H18.084H18.0837C15.4912 31.2484 13.0788 30.4885 11.0472 29.1863C11.4064 29.2287 11.772 29.2498 12.1422 29.2498C14.2931 29.2498 16.2725 28.5161 17.8438 27.2847C15.8342 27.2475 14.1399 25.9203 13.5552 24.0963C13.835 24.15 14.1228 24.1793 14.4179 24.1793C14.8369 24.1793 15.2428 24.1228 15.6285 24.0175C13.528 23.597 11.9457 21.7406 11.9457 19.5177C11.9457 19.4969 11.9457 19.4783 11.9463 19.4591C12.5649 19.803 13.2723 20.0099 14.0255 20.0331C12.7928 19.2107 11.9826 17.8047 11.9826 16.212C11.9826 15.371 12.21 14.583 12.6042 13.9046C14.868 16.6823 18.2512 18.5091 22.0665 18.701C21.9878 18.3647 21.9472 18.0144 21.9472 17.6543C21.9472 15.1201 24.0032 13.0641 26.5383 13.0641C27.8588 13.0641 29.0514 13.6223 29.8891 14.5146C30.9349 14.3083 31.917 13.9263 32.8041 13.4005C32.4608 14.4719 31.7333 15.371 30.7854 15.9395C31.7141 15.8284 32.5991 15.5822 33.4215 15.2166C32.8072 16.1373 32.0281 16.946 31.1318 17.5939Z" fill="black"/>
</g>
<defs>
<filter id="filter0_d" x="0" y="0" width="46" height="46" filterUnits="userSpaceOnUse" color-interpolation-filters="sRGB">
<feFlood flood-opacity="0" result="BackgroundImageFix"/>
<feColorMatrix in="SourceAlpha" type="matrix" values="0 0 0 0 0 0 0 0 0 0 0 0 0 0 0 0 0 0 127 0"/>
<feOffset dx="1" dy="1"/>
<feGaussianBlur stdDeviation="1.5"/>
<feColorMatrix type="matrix" values="0 0 0 0 0.689528 0 0 0 0 0.0143055 0 0 0 0 0.858333 0 0 0 1 0"/>
<feBlend mode="normal" in2="BackgroundImageFix" result="effect1_dropShadow"/>
<feBlend mode="normal" in="SourceGraphic" in2="effect1_dropShadow" result="shape"/>
</filter>
</defs>
</svg>
