<svg width="46" height="46" viewBox="0 0 46 46" fill="none" xmlns="http://www.w3.org/2000/svg">
<g filter="url(#filter0_d)">
<path d="M22 2C10.9547 2 2 10.9543 2 22C2 33.0457 10.9547 42 22 42C33.0453 42 42 33.0457 42 22C42 10.9543 33.0453 2 22 2ZM32.1451 24.1631C33.0772 25.0736 34.0634 25.9304 34.9003 26.935C35.271 27.3794 35.6205 27.839 35.8864 28.3558C36.2662 29.0928 35.9233 29.901 35.2636 29.9448L31.1662 29.9439C30.108 30.0315 29.2659 29.6047 28.5559 28.8812C27.9892 28.3047 27.4633 27.6888 26.9174 27.0926C26.6944 26.8479 26.4595 26.6175 26.1796 26.4362C25.6211 26.0728 25.1358 26.1841 24.8158 26.7677C24.4896 27.3614 24.4151 28.0194 24.384 28.6803C24.3394 29.6464 24.0481 29.8989 23.0787 29.9443C21.0073 30.0413 19.0418 29.7271 17.2151 28.6828C15.6037 27.7616 14.3564 26.4616 13.2696 24.9897C11.1531 22.1203 9.53228 18.971 8.07591 15.7314C7.74813 15.0017 7.98793 14.6114 8.79284 14.5962C10.1301 14.5704 11.4674 14.5737 12.8047 14.595C13.349 14.6036 13.7091 14.915 13.9182 15.4285C14.6408 17.2065 15.5268 18.8982 16.6369 20.4671C16.9328 20.8849 17.2348 21.3015 17.6649 21.5965C18.1395 21.9223 18.5013 21.8146 18.7251 21.2847C18.8683 20.9479 18.9301 20.5878 18.9612 20.2269C19.0676 18.9907 19.0803 17.7549 18.8962 16.5236C18.7816 15.753 18.3482 15.2554 17.5802 15.1098C17.189 15.0357 17.2462 14.8908 17.4365 14.6674C17.7668 14.2811 18.0761 14.0421 18.6944 14.0421L23.3238 14.0413C24.0534 14.1846 24.2171 14.5119 24.3161 15.2469L24.3202 20.3914C24.3116 20.6758 24.463 21.5188 24.9737 21.705C25.3829 21.84 25.653 21.5118 25.8977 21.2528C27.0079 20.0747 27.7989 18.6842 28.5072 17.245C28.8198 16.6103 29.0895 15.9536 29.3514 15.2956C29.5462 14.809 29.849 14.5696 30.3982 14.5778L34.8561 14.5831C34.9874 14.5831 35.1208 14.5843 35.2509 14.6069C36.0023 14.7353 36.2081 15.0586 35.9757 15.7915C35.6098 16.943 34.899 17.9022 34.2042 18.8638C33.4594 19.8934 32.6652 20.887 31.9278 21.921C31.2501 22.8663 31.3037 23.3422 32.1451 24.1631Z" fill="url(#paint0_linear)" fill-opacity="0.8"/>
</g>
<defs>
<filter id="filter0_d" x="0" y="0" width="46" height="46" filterUnits="userSpaceOnUse" color-interpolation-filters="sRGB">
<feFlood flood-opacity="0" result="BackgroundImageFix"/>
<feColorMatrix in="SourceAlpha" type="matrix" values="0 0 0 0 0 0 0 0 0 0 0 0 0 0 0 0 0 0 127 0"/>
<feOffset dx="1" dy="1"/>
<feGaussianBlur stdDeviation="1.5"/>
<feColorMatrix type="matrix" values="0 0 0 0 0.689528 0 0 0 0 0.0143055 0 0 0 0 0.858333 0 0 0 1 0"/>
<feBlend mode="normal" in2="BackgroundImageFix" result="effect1_dropShadow"/>
<feBlend mode="normal" in="SourceGraphic" in2="effect1_dropShadow" result="shape"/>
</filter>
<linearGradient id="paint0_linear" x1="2.11544" y1="2" x2="35.132" y2="46.8114" gradientUnits="userSpaceOnUse">
<stop stop-color="#3C5AFB"/>
<stop offset="1" stop-color="#B004DB"/>
</linearGradient>
</defs>
</svg>
